<svg xmlns="http://www.w3.org/2000/svg" viewBox="0 0 31 33" width="31" height="33">
	<defs>
		<clipPath clipPathUnits="userSpaceOnUse" id="cp1">
			<path d="M-944 -994L976 -994L976 4565L-944 4565Z" />
		</clipPath>
	</defs>
	<style>
		tspan { white-space:pre }
		.shp0 { fill: #3a2511 } 
	</style>
	<g id="Antique" clip-path="url(#cp1)">
		<g id="page1">
			<g id="scroll down">
				<g id="Group 9" style="opacity: 0.471">
					<path id="down" class="shp0" d="M17.1 16.97L29.92 4.15C30.76 3.32 30.76 1.96 29.92 1.13C29.09 0.29 27.73 0.29 26.9 1.13L15.59 12.44L4.28 1.13C3.44 0.29 2.09 0.29 1.26 1.13C0.42 1.96 0.42 3.32 1.26 4.15L14.08 16.97C14.91 17.81 16.27 17.81 17.1 16.97Z" />
					<path id="down" class="shp0" d="M17.47 31.97L30.29 19.15C31.13 18.32 31.13 16.96 30.29 16.13C29.46 15.29 28.1 15.29 27.27 16.13L15.96 27.44L4.65 16.13C3.81 15.29 2.46 15.29 1.63 16.13C0.79 16.96 0.79 18.32 1.63 19.15L14.45 31.97C15.28 32.81 16.64 32.81 17.47 31.97Z" />
				</g>
			</g>
		</g>
	</g>
</svg>