<svg xmlns="http://www.w3.org/2000/svg" viewBox="0 0 28 28" width="28" height="28">
	<defs>
		<clipPath clipPathUnits="userSpaceOnUse" id="cp1">
			<path d="M-1564 -51L356 -51L356 5508L-1564 5508Z" />
		</clipPath>
	</defs>
	<style>
		tspan { white-space:pre }
		.shp0 { fill: #3a2511 } 
	</style>
	<g id="Antique" clip-path="url(#cp1)">
		<g id="page1">
			<g id="page1">
				<g id="icons">
					<g id="loupe">
						<g id="Group 5">
							<g id="Group 4">
								<path id="Path 1" fill-rule="evenodd" class="shp0" d="M24.53 12.26C24.53 19.02 19.02 24.53 12.26 24.53C5.5 24.53 0 19.02 0 12.26C0 5.5 5.5 0 12.26 0C19.02 0 24.53 5.5 24.53 12.26ZM22.26 12.26C22.26 6.75 17.78 2.26 12.26 2.26C6.75 2.26 2.26 6.75 2.26 12.26C2.26 17.78 6.75 22.26 12.26 22.26C17.78 22.26 22.26 17.78 22.26 12.26Z" />
							</g>
						</g>
						<g id="Group 7">
							<g id="Group 6">
								<path id="Path 2" class="shp0" d="M27.51 25.91L21.02 19.42C20.58 18.98 19.87 18.98 19.42 19.42C18.98 19.87 18.98 20.58 19.42 21.02L25.91 27.51C26.14 27.74 26.42 27.85 26.71 27.85C27 27.85 27.29 27.74 27.51 27.51C27.96 27.07 27.96 26.36 27.51 25.91Z" />
							</g>
						</g>
					</g>
				</g>
			</g>
		</g>
	</g>
</svg>