<svg xmlns="http://www.w3.org/2000/svg" viewBox="0 0 107 108" width="107" height="108">
	<defs>
		<clipPath clipPathUnits="userSpaceOnUse" id="cp1">
			<path d="M-417 -1222L1503 -1222L1503 4337L-417 4337Z" />
		</clipPath>
	</defs>
	<style>
		tspan { white-space:pre }
		.shp0 { fill: #3a2511 } 
	</style>
	<g id="Antique" clip-path="url(#cp1)">
		<g id="page2">
			<g id="icons-text-page2">
				<g id="icons">
					<g id="call-center">
						<path id="Path 9" class="shp0" d="M48.12 50.7C48.12 49.72 47.33 48.92 46.34 48.92C45.36 48.92 44.56 49.72 44.56 50.7C44.56 55.62 48.55 59.61 53.47 59.61C58.39 59.61 62.38 55.62 62.38 50.7C62.38 49.72 61.58 48.92 60.59 48.92C59.61 48.92 58.81 49.72 58.81 50.7C58.81 53.66 56.42 56.05 53.47 56.05C50.52 56.05 48.12 53.66 48.12 50.7Z" />
						<path id="Path 10" class="shp0" d="M58.81 40.01C59.8 40.01 60.59 39.22 60.59 38.23C60.59 37.25 61.39 36.45 62.38 36.45C63.36 36.45 64.16 37.25 64.16 38.23C64.16 39.22 64.95 40.01 65.94 40.01C66.92 40.01 67.72 39.22 67.72 38.23C67.72 35.28 65.33 32.89 62.38 32.89C59.42 32.89 57.03 35.28 57.03 38.23C57.03 39.22 57.83 40.01 58.81 40.01Z" />
						<path id="Path 11" class="shp0" d="M39.22 38.23C39.22 39.22 40.01 40.01 41 40.01C41.98 40.01 42.78 39.22 42.78 38.23C42.78 37.25 43.58 36.45 44.56 36.45C45.54 36.45 46.34 37.25 46.34 38.23C46.34 39.22 47.14 40.01 48.12 40.01C49.11 40.01 49.9 39.22 49.9 38.23C49.9 35.28 47.51 32.89 44.56 32.89C41.61 32.89 39.22 35.28 39.22 38.23Z" />
						<path id="Path 12" fill-rule="evenodd" class="shp0" d="M105.13 104.15C106.11 104.15 106.91 104.95 106.91 105.93C106.91 106.91 106.11 107.71 105.13 107.71L1.8 107.71C0.82 107.71 0.02 106.91 0.02 105.93C0.02 104.95 0.82 104.15 1.8 104.15L8.93 104.15C8.93 100.21 12.12 97.02 16.06 97.02C19.99 97.02 23.18 100.21 23.18 104.15L35.65 104.15L35.65 95.24C35.65 92.29 33.26 89.9 30.31 89.9L1.8 89.9C0.82 89.9 0.02 89.1 0.02 88.11C0.02 87.13 0.82 86.33 1.8 86.33L9.35 86.33C10.57 80.99 14.45 76.64 19.62 74.8L19.62 52.31C15.47 51.46 12.5 47.81 12.49 43.58L12.49 32.89C12.5 27.97 16.48 23.99 21.4 23.98C25.98 10.16 38.9 0.82 53.47 0.82C68.03 0.82 80.95 10.16 85.53 23.98C90.45 23.99 94.43 27.97 94.44 32.89L94.44 43.58C94.44 47.81 91.46 51.46 87.32 52.31L87.32 74.8C93.71 77.06 97.99 83.11 98 89.9L98 104.15L105.13 104.15ZM19.62 104.15C19.62 102.18 18.02 100.59 16.06 100.59C14.09 100.59 12.49 102.18 12.49 104.15L19.62 104.15ZM85.53 27.54L83.75 27.54L83.75 48.92L85.53 48.92C88.49 48.92 90.88 46.53 90.88 43.58L90.88 32.89C90.88 29.94 88.49 27.54 85.53 27.54ZM21.4 48.92L23.18 48.92L23.18 27.54L21.4 27.54C18.45 27.54 16.06 29.94 16.06 32.89L16.06 43.58C16.06 46.53 18.45 48.92 21.4 48.92ZM23.18 73.97C23.77 73.9 24.37 73.87 24.96 73.86L40.99 73.86L41 64.7C34.31 60.22 30.3 52.7 30.31 44.65L30.31 25.76C30.31 23.8 31.9 22.2 33.87 22.2L42.78 22.2C43.76 22.2 44.56 23 44.56 23.98C44.56 24.97 43.76 25.76 42.78 25.76L33.87 25.76L33.87 44.66C33.73 55.51 42.25 64.51 53.1 64.96C58.36 65.05 63.44 63.03 67.19 59.35C70.95 55.66 73.06 50.62 73.06 45.36L73.06 25.76L65.26 25.76C63.91 25.77 62.67 25.01 62.07 23.8L60.59 20.84L59.11 23.8C58.51 25.01 57.28 25.77 55.93 25.76L51.69 25.76C50.7 25.76 49.9 24.97 49.9 23.98C49.9 23 50.7 22.2 51.69 22.2L55.93 22.2L57.41 19.24C58.02 18.03 59.25 17.27 60.59 17.27C61.94 17.27 63.17 18.03 63.78 19.24L65.26 22.2L73.06 22.2C75.03 22.2 76.63 23.8 76.63 25.76L76.63 45.36C76.65 51.58 74.15 57.55 69.69 61.89C68.55 63.01 67.29 64.01 65.94 64.88L65.94 73.86L81.97 73.86C82.57 73.87 83.16 73.9 83.75 73.97L83.75 52.49C81.79 52.49 80.19 50.89 80.19 48.92L80.19 27.54C80.2 26.29 80.86 25.13 81.95 24.49C77.67 12.44 66.26 4.39 53.47 4.39C40.68 4.39 29.27 12.44 24.99 24.49C26.07 25.13 26.74 26.29 26.75 27.54L26.75 48.92C26.74 49.89 26.35 50.81 25.65 51.48C26.47 55.17 28.02 58.66 30.21 61.75C30.81 61.52 31.45 61.4 32.09 61.39C35.04 61.39 37.43 63.79 37.43 66.74C37.43 69.69 35.04 72.08 32.09 72.08C29.14 72.08 26.75 69.69 26.75 66.74C26.75 65.8 27.01 64.87 27.49 64.07C25.66 61.53 24.21 58.75 23.18 55.81L23.18 73.97ZM30.82 65.5C30.13 66.2 30.14 67.33 30.84 68.03C31.54 68.72 32.67 68.72 33.37 68.02C34.07 67.32 34.07 66.19 33.38 65.49C32.68 64.79 31.55 64.78 30.85 65.47L30.83 65.49L30.82 65.5ZM81.97 97.02C83.94 97.02 85.53 98.62 85.53 100.59L85.53 104.15L94.44 104.15L94.44 89.9C94.43 83.01 88.86 77.43 81.97 77.43L70.39 77.43L66.92 82.06C66.33 82.85 65.21 83 64.42 82.41C63.64 81.82 63.48 80.71 64.07 79.92L65.94 77.43C63.97 77.42 62.38 75.83 62.38 73.86L62.38 66.75C59.55 67.92 56.53 68.52 53.47 68.52L53.03 68.52C50.12 68.46 47.24 67.83 44.56 66.66L44.56 73.86C44.55 75.83 42.96 77.42 41 77.43L52.07 92.19C52.41 92.61 52.93 92.86 53.47 92.86C54.01 92.86 54.52 92.61 54.86 92.19L58.72 87.05C59.31 86.26 60.43 86.1 61.22 86.69C62 87.28 62.16 88.4 61.57 89.18L57.71 94.33C56.71 95.67 55.14 96.45 53.47 96.45C51.8 96.45 50.22 95.67 49.22 94.33L36.54 77.43L24.96 77.43C19.45 77.43 14.6 81.05 13.03 86.33L30.31 86.33C35.23 86.34 39.21 90.32 39.22 95.24L39.22 104.15L67.72 104.15L67.72 100.59C67.72 98.62 69.31 97.02 71.28 97.02L81.97 97.02ZM81.97 104.15L81.97 100.59L71.28 100.59L71.28 104.15L81.97 104.15Z" />
					</g>
				</g>
			</g>
		</g>
	</g>
</svg>