<svg xmlns="http://www.w3.org/2000/svg" viewBox="0 0 106 82" width="106" height="82">
	<defs>
		<clipPath clipPathUnits="userSpaceOnUse" id="cp1">
			<path d="M-1375 -1248L545 -1248L545 4311L-1375 4311Z" />
		</clipPath>
	</defs>
	<style>
		tspan { white-space:pre }
		.shp0 { fill: #3a2511 } 
	</style>
	<g id="Antique" clip-path="url(#cp1)">
		<g id="page2">
			<g id="icons-text-page2">
				<g id="icons">
					<g id="motorcycle">
						<path id="Path 18" class="shp0" d="M38.87 45.91C39.85 45.91 40.64 45.12 40.64 44.15C40.64 43.17 39.85 42.38 38.87 42.38L30.04 42.38C29.07 42.38 28.28 43.17 28.28 44.15C28.28 45.12 29.07 45.91 30.04 45.91L38.87 45.91Z" />
						<path id="Path 19" fill-rule="evenodd" class="shp0" d="M88.31 26.49L88.31 45.91C98.35 46.83 106.01 55.26 105.97 65.33C105.97 66.31 105.18 67.1 104.21 67.1L98.75 67.1C98.85 67.68 98.9 68.28 98.91 68.87C98.91 75.69 93.37 81.23 86.55 81.23C79.72 81.23 74.19 75.69 74.19 68.87C74.2 68.28 74.25 67.68 74.35 67.1L45.78 67.1C45.87 67.68 45.92 68.28 45.93 68.87C45.93 75.69 40.4 81.23 33.57 81.23C26.75 81.23 21.21 75.69 21.21 68.87C21.22 68.28 21.27 67.68 21.37 67.1L10.62 67.1C9.64 67.1 8.85 66.31 8.85 65.33L8.85 60.04C8.85 59.06 9.64 58.27 10.62 58.27C11.59 58.27 12.38 59.06 12.38 60.04L12.38 63.57L14.89 63.57C16.36 58.37 19.94 54.02 24.75 51.56C29.57 49.1 35.19 48.77 40.27 50.63C41.18 50.96 41.65 51.98 41.32 52.89C40.98 53.81 39.96 54.28 39.05 53.94C37.3 53.3 35.44 52.97 33.57 52.97C26.82 52.95 20.78 57.2 18.53 63.57L48.55 63.57C47.89 61.7 46.89 59.98 45.6 58.48C44.96 57.75 45.04 56.63 45.78 55.99C46.51 55.36 47.63 55.43 48.26 56.17C50.11 58.31 51.46 60.84 52.22 63.57L54.76 63.57L54.76 51.21C54.76 44.38 49.23 38.85 42.4 38.85L24.74 38.85C17.92 38.85 12.38 44.38 12.38 51.21C12.38 52.18 11.59 52.97 10.62 52.97C9.64 52.97 8.85 52.18 8.85 51.21C8.86 46.4 11.04 41.86 14.78 38.85L7.09 38.85C3.19 38.85 0.02 35.69 0.02 31.78L0.02 30.02C0.02 29.04 0.81 28.25 1.79 28.25L30.04 28.25L30.04 3.53L24.74 3.53L24.74 12.36C24.74 13.34 23.95 14.13 22.98 14.13L12.38 14.13C11.41 14.13 10.62 13.34 10.62 12.36L10.62 3.53L3.55 3.53L3.55 22.96C3.55 23.93 2.76 24.72 1.79 24.72C0.81 24.72 0.02 23.93 0.02 22.96L0.02 1.77C0.02 0.79 0.81 0 1.79 0L31.81 0C32.78 0 33.57 0.79 33.57 1.77L33.57 28.25L53 28.25C55.92 28.25 58.29 30.62 58.29 33.55L58.29 37.08C58.29 38.06 57.5 38.85 56.53 38.85L52.36 38.85C56.11 41.86 58.29 46.4 58.29 51.21L58.29 54.74L68.89 54.74L68.89 38.85C68.89 34.95 72.05 31.78 75.95 31.78L77.72 31.78L77.72 26.49C74.79 26.49 72.42 24.12 72.42 21.19L72.42 19.42L65.36 19.42C62.43 19.42 60.06 17.05 60.06 14.13C60.06 11.2 62.43 8.83 65.36 8.83L91.85 8.83C91.85 7.85 92.64 7.06 93.61 7.06L100.67 7.06C103.6 7.06 105.97 9.44 105.97 12.36L105.97 22.96C105.97 25.88 103.6 28.25 100.67 28.25L93.61 28.25C92.64 28.25 91.85 27.46 91.85 26.49L88.31 26.49ZM21.21 3.53L14.15 3.53L14.15 10.59L21.21 10.59L21.21 3.53ZM30.04 35.32L30.04 31.78L3.55 31.78C3.55 33.73 5.14 35.32 7.09 35.32L30.04 35.32ZM54.76 35.32L54.76 33.55C54.76 32.58 53.97 31.78 53 31.78L33.57 31.78L33.57 35.32L54.76 35.32ZM77.72 22.96L91.85 22.96L91.85 22.07C91.85 21.1 92.64 20.31 93.61 20.31C94.59 20.31 95.38 21.1 95.38 22.07L95.38 24.72L100.67 24.72C101.65 24.72 102.44 23.93 102.44 22.96L102.44 12.36C102.44 11.39 101.65 10.59 100.67 10.59L95.38 10.59L95.38 15.89C95.38 16.87 94.59 17.66 93.61 17.66C92.64 17.66 91.85 16.87 91.85 15.89L91.85 12.36L82.7 12.36C82.9 12.93 83.01 13.52 83.02 14.13C83.02 15.1 82.23 15.89 81.25 15.89C80.28 15.89 79.48 15.1 79.48 14.13C79.48 13.15 78.69 12.36 77.72 12.36L65.36 12.36C64.38 12.36 63.59 13.15 63.59 14.13C63.59 15.1 64.38 15.89 65.36 15.89L75.95 15.89C76.93 15.89 77.72 16.68 77.72 17.66C77.72 18.63 76.93 19.42 75.95 19.42L75.95 21.19C75.95 22.16 76.74 22.96 77.72 22.96ZM72.42 38.85L72.42 52.04C73.95 50.42 75.74 49.07 77.72 48.05L77.72 35.32L75.95 35.32C74 35.32 72.42 36.9 72.42 38.85ZM42.4 68.87C42.39 68.27 42.32 67.68 42.19 67.1L38.55 67.1C39.35 69.3 38.61 71.76 36.74 73.16C34.86 74.55 32.29 74.55 30.41 73.16C28.53 71.76 27.8 69.3 28.59 67.1L24.96 67.1C24.82 67.68 24.75 68.27 24.74 68.87C24.74 73.74 28.7 77.7 33.57 77.7C38.45 77.7 42.4 73.74 42.4 68.87ZM33.57 67.1C32.6 67.1 31.81 67.89 31.81 68.87C31.81 69.84 32.6 70.63 33.57 70.63C34.55 70.63 35.34 69.84 35.34 68.87C35.34 67.89 34.55 67.1 33.57 67.1ZM58.29 63.57L67.21 63.57C67.32 62.71 67.47 61.85 67.67 61.01L67.78 60.66C67.96 59.9 68.19 59.16 68.47 58.43L68.47 58.27L58.29 58.27L58.29 63.57ZM95.38 68.87C95.35 68.31 95.26 67.76 95.13 67.22C95.14 67.18 95.14 67.14 95.13 67.1L91.49 67.1C92.29 69.3 91.55 71.76 89.67 73.16C87.8 74.55 85.23 74.55 83.35 73.16C81.47 71.76 80.73 69.3 81.53 67.1L77.9 67.1C77.89 67.14 77.89 67.18 77.9 67.22C77.78 67.76 77.72 68.31 77.72 68.87C77.72 73.74 81.67 77.7 86.55 77.7C91.42 77.7 95.38 73.74 95.38 68.87ZM86.55 67.1C85.57 67.1 84.78 67.89 84.78 68.87C84.78 69.84 85.57 70.63 86.55 70.63C87.52 70.63 88.31 69.84 88.31 68.87C88.31 67.89 87.52 67.1 86.55 67.1ZM102.33 63.57C101.65 56.65 96.55 50.99 89.75 49.58C82.94 48.16 76.01 51.34 72.63 57.41C71.98 58.56 71.47 59.79 71.11 61.06C71.11 61.15 71.11 61.31 71.11 61.31C70.97 61.89 70.86 62.48 70.78 63.08L70.78 63.57L102.33 63.57ZM84.78 26.49L81.25 26.49L81.25 46.67C82.4 46.33 83.59 46.11 84.78 46L84.78 26.49Z" />
					</g>
				</g>
			</g>
		</g>
	</g>
</svg>