<svg xmlns="http://www.w3.org/2000/svg" viewBox="0 0 34 29" width="34" height="29">
	<defs>
		<clipPath clipPathUnits="userSpaceOnUse" id="cp1">
			<path d="M-1698 -50L222 -50L222 5509L-1698 5509Z" />
		</clipPath>
	</defs>
	<style>
		tspan { white-space:pre }
		.shp0 { fill: #3a2511 } 
	</style>
	<g id="Antique" clip-path="url(#cp1)">
		<g id="page1">
			<g id="page1">
				<g id="icons">
					<g id="shop">
						<g id="shopping-cart">
							<path id="Path 3" fill-rule="evenodd" class="shp0" d="M11.34 18.8C10.82 18.8 10.4 19.22 10.4 19.74C10.4 20.25 10.82 20.68 11.34 20.68L28.38 20.68C28.9 20.68 29.32 21.1 29.32 21.62C29.32 22.14 28.9 22.56 28.38 22.56L11.34 22.56C9.78 22.56 8.52 21.29 8.52 19.74C8.52 18.58 9.22 17.58 10.22 17.15C10.04 16.35 6.94 2.42 6.82 1.88L1.94 1.88C1.42 1.88 1 1.46 1 0.94C1 0.42 1.42 0 1.94 0L7.58 0C8.02 0 8.4 0.31 8.5 0.74L9.17 3.76L32.14 3.76C32.43 3.76 32.71 3.9 32.89 4.13C33.07 4.37 33.12 4.67 33.04 4.96L29.28 18.11C29.17 18.52 28.8 18.8 28.38 18.8C28.38 18.8 11.34 18.8 11.34 18.8ZM9.59 5.64L12.09 16.92L27.67 16.92L30.89 5.64L9.59 5.64Z" />
							<path id="Path 4" fill-rule="evenodd" class="shp0" d="M13.22 22.56C14.77 22.56 16.04 23.82 16.04 25.38C16.04 26.93 14.77 28.19 13.22 28.19C11.66 28.19 10.4 26.93 10.4 25.38C10.4 23.82 11.66 22.56 13.22 22.56ZM12.28 25.38C12.28 25.89 12.7 26.32 13.22 26.32C13.74 26.32 14.16 25.89 14.16 25.38C14.16 24.86 13.74 24.44 13.22 24.44C12.7 24.44 12.28 24.86 12.28 25.38Z" />
							<path id="Path 5" fill-rule="evenodd" class="shp0" d="M26.5 22.56C28.06 22.56 29.32 23.82 29.32 25.38C29.32 26.93 28.06 28.19 26.5 28.19C24.95 28.19 23.68 26.93 23.68 25.38C23.68 23.82 24.95 22.56 26.5 22.56ZM25.56 25.38C25.56 25.89 25.98 26.32 26.5 26.32C27.02 26.32 27.44 25.89 27.44 25.38C27.44 24.86 27.02 24.44 26.5 24.44C25.98 24.44 25.56 24.86 25.56 25.38Z" />
						</g>
					</g>
				</g>
			</g>
		</g>
	</g>
</svg>