<svg xmlns="http://www.w3.org/2000/svg" viewBox="0 0 87 87" width="87" height="87">
	<defs>
		<clipPath clipPathUnits="userSpaceOnUse" id="cp1">
			<path d="M-1065 -1236L855 -1236L855 4323L-1065 4323Z" />
		</clipPath>
	</defs>
	<style>
		tspan { white-space:pre }
		.shp0 { fill: #3a2511 } 
	</style>
	<g id="Antique" clip-path="url(#cp1)">
		<g id="page2">
			<g id="icons-text-page2">
				<g id="icons">
					<g id="gift">
						<path id="Path 13" fill-rule="evenodd" class="shp0" d="M73.84 20.27C81.03 20.28 86.86 26.11 86.87 33.3L86.87 39.09C86.87 41.49 84.93 43.44 82.53 43.44L78.18 43.44L78.18 73.84C78.18 81.03 72.35 86.86 65.15 86.87L21.72 86.87C14.52 86.86 8.69 81.03 8.69 73.84L8.69 43.44L4.34 43.44C1.94 43.44 0 41.49 0 39.09L0 33.3C0.01 26.11 5.84 20.28 13.03 20.27L16.91 20.27C16.26 19.17 15.92 17.92 15.93 16.65C15.9 14.74 16.68 12.9 18.07 11.58C16.68 10.27 15.9 8.43 15.93 6.52C15.74 3.12 18.33 0.21 21.72 0L26.34 0C28.41 0.02 30.42 0.66 32.12 1.82L37.64 5.5L37.64 4.34C37.64 1.94 39.59 0 41.99 0L44.88 0C47.28 0 49.23 1.94 49.23 4.34L49.23 5.5L54.75 1.82C56.46 0.65 58.47 0.02 60.53 0L65.15 0C68.55 0.21 71.13 3.12 70.95 6.52C70.97 8.43 70.19 10.27 68.8 11.58C70.19 12.9 70.97 14.74 70.95 16.65C70.95 17.92 70.61 19.17 69.97 20.27L73.84 20.27ZM49.23 8.98L49.23 14.19L56.36 18.94C57.58 19.79 59.04 20.26 60.53 20.27L65.15 20.27C66.94 20.04 68.22 18.44 68.05 16.65C68.08 15.48 67.58 14.35 66.69 13.59C66.11 13.08 65.77 12.35 65.77 11.58C65.77 10.81 66.11 10.08 66.69 9.58C67.58 8.82 68.08 7.69 68.05 6.52C68.22 4.72 66.94 3.12 65.15 2.9L60.53 2.9C59.04 2.91 57.58 3.38 56.36 4.23L49.23 8.98ZM49.23 17.66L49.23 20.27L53.14 20.27L49.23 17.66ZM40.54 20.27L46.33 20.27L46.33 4.34C46.33 3.54 45.68 2.9 44.88 2.9L41.99 2.9C41.19 2.9 40.54 3.54 40.54 4.34L40.54 20.27ZM37.64 20.27L37.64 17.66L33.73 20.27L37.64 20.27ZM18.82 16.65C18.65 18.44 19.93 20.04 21.72 20.27L26.34 20.27C27.83 20.26 29.29 19.8 30.52 18.95L37.64 14.2L37.64 8.98L30.52 4.23C29.29 3.38 27.84 2.91 26.34 2.9L21.72 2.9C19.93 3.12 18.65 4.72 18.82 6.52C18.79 7.69 19.29 8.82 20.18 9.58C20.76 10.08 21.1 10.81 21.1 11.58C21.1 12.35 20.76 13.08 20.18 13.59C19.29 14.35 18.79 15.48 18.82 16.65ZM2.9 39.09C2.9 39.89 3.54 40.54 4.34 40.54L6.6 40.54C6.08 39.66 5.8 38.66 5.79 37.64C5.79 36.84 6.44 36.2 7.24 36.2C8.04 36.2 8.69 36.84 8.69 37.64C8.69 39.24 9.98 40.54 11.58 40.54C13.18 40.54 14.48 39.24 14.48 37.64C14.48 36.05 13.18 34.75 11.58 34.75C10.78 34.75 10.14 34.1 10.14 33.3C10.14 32.5 10.78 31.85 11.58 31.85C14.78 31.85 17.37 34.45 17.37 37.64C17.37 38.66 17.09 39.66 16.57 40.54L30.41 40.54L30.41 23.17L25.51 23.17C27.34 24.75 27.99 27.3 27.14 29.57C26.3 31.83 24.14 33.34 21.72 33.34C19.3 33.34 17.14 31.83 16.29 29.57C15.45 27.3 16.1 24.75 17.93 23.17L13.03 23.17C7.44 23.17 2.9 27.71 2.9 33.3L2.9 39.09ZM21.72 24.61C20.12 24.61 18.82 25.91 18.82 27.51C18.82 29.11 20.12 30.4 21.72 30.4C23.32 30.4 24.61 29.11 24.61 27.51C24.61 25.91 23.32 24.61 21.72 24.61ZM75.29 43.44L53.57 43.44L53.57 53.57C53.57 54.37 52.92 55.02 52.12 55.02C51.32 55.02 50.68 54.37 50.68 53.57L50.68 43.44L36.2 43.44L36.2 62.26C36.2 63.06 35.55 63.71 34.75 63.71C33.95 63.71 33.3 63.06 33.3 62.26L33.3 43.44L11.58 43.44L11.58 60.17C12.46 59.65 13.46 59.37 14.48 59.36C17.68 59.36 20.27 61.96 20.27 65.15C20.27 68.35 17.68 70.94 14.48 70.94C13.46 70.94 12.46 70.66 11.58 70.14L11.58 73.84C11.59 79.44 16.12 83.97 21.72 83.98L33.3 83.98L33.3 79.63C33.3 78.83 33.95 78.18 34.75 78.18C35.55 78.18 36.2 78.83 36.2 79.63L36.2 83.98L50.68 83.98L50.68 63.71C50.68 62.91 51.32 62.26 52.12 62.26C52.92 62.26 53.57 62.91 53.57 63.71L53.57 70.3C54.45 69.78 55.45 69.5 56.47 69.5C59.66 69.5 62.26 72.09 62.26 75.29C62.26 78.49 59.66 81.08 56.47 81.08C55.45 81.08 54.45 80.8 53.57 80.28L53.57 83.98L65.15 83.98C70.75 83.97 75.28 79.44 75.29 73.84L75.29 73.04C74.41 73.56 73.41 73.84 72.39 73.84C69.19 73.84 66.6 71.25 66.6 68.05C66.6 64.85 69.19 62.26 72.39 62.26C73.41 62.27 74.41 62.55 75.29 63.07L75.29 43.44ZM72.39 65.15C70.79 65.15 69.5 66.45 69.5 68.05C69.5 69.65 70.79 70.94 72.39 70.94C73.99 70.94 75.29 69.65 75.29 68.05C75.29 66.45 73.99 65.15 72.39 65.15ZM56.47 78.18C58.07 78.18 59.36 76.89 59.36 75.29C59.36 73.69 58.07 72.39 56.47 72.39C54.87 72.39 53.57 73.69 53.57 75.29C53.57 76.89 54.87 78.18 56.47 78.18ZM14.48 68.05C16.08 68.05 17.37 66.75 17.37 65.15C17.37 63.55 16.08 62.26 14.48 62.26C12.88 62.26 11.58 63.55 11.58 65.15C11.58 66.75 12.88 68.05 14.48 68.05ZM83.98 33.3C83.97 27.71 79.44 23.17 73.84 23.17L56.47 23.17L56.47 26.06C56.47 26.86 55.82 27.51 55.02 27.51C54.22 27.51 53.57 26.86 53.57 26.06L53.57 23.17L33.3 23.17L33.3 40.54L53.57 40.54L53.57 34.75C53.57 33.95 54.22 33.3 55.02 33.3C55.82 33.3 56.47 33.95 56.47 34.75L56.47 40.54L82.53 40.54C83.33 40.54 83.98 39.89 83.98 39.09L83.98 33.3Z" />
						<path id="Path 14" class="shp0" d="M65.15 59.36C68.35 59.36 70.95 56.77 70.95 53.57C70.95 52.77 70.3 52.12 69.5 52.12C68.7 52.12 68.05 52.77 68.05 53.57C68.05 55.17 66.75 56.47 65.15 56.47C63.55 56.47 62.26 55.17 62.26 53.57C62.26 51.97 63.55 50.68 65.15 50.68C65.95 50.68 66.6 50.03 66.6 49.23C66.6 48.43 65.95 47.78 65.15 47.78C61.96 47.78 59.36 50.37 59.36 53.57C59.36 56.77 61.96 59.36 65.15 59.36Z" />
						<path id="Path 15" fill-rule="evenodd" class="shp0" d="M36.2 70.95C36.2 74.14 33.6 76.74 30.41 76.74C27.21 76.74 24.61 74.14 24.61 70.95C24.61 67.75 27.21 65.15 30.41 65.15C33.6 65.15 36.2 67.75 36.2 70.95ZM33.3 70.95C33.3 69.35 32 68.05 30.41 68.05C28.81 68.05 27.51 69.35 27.51 70.95C27.51 72.54 28.81 73.84 30.41 73.84C32 73.84 33.3 72.54 33.3 70.95Z" />
						<path id="Path 16" class="shp0" d="M23.17 55.02C21.57 55.02 20.27 53.72 20.27 52.12C20.27 50.52 21.57 49.23 23.17 49.23C24.76 49.23 26.06 50.52 26.06 52.12C26.06 52.92 26.71 53.57 27.51 53.57C28.31 53.57 28.96 52.92 28.96 52.12C28.96 48.92 26.36 46.33 23.17 46.33C19.97 46.33 17.37 48.92 17.37 52.12C17.37 55.32 19.97 57.91 23.17 57.91C23.97 57.91 24.61 57.27 24.61 56.47C24.61 55.67 23.97 55.02 23.17 55.02Z" />
						<path id="Path 17" class="shp0" d="M68.05 26.06C64.85 26.06 62.26 28.65 62.26 31.85C62.26 35.05 64.85 37.64 68.05 37.64C68.85 37.64 69.5 37 69.5 36.2C69.5 35.4 68.85 34.75 68.05 34.75C66.45 34.75 65.15 33.45 65.15 31.85C65.15 30.25 66.45 28.96 68.05 28.96C69.65 28.96 70.95 30.25 70.95 31.85C70.95 32.65 71.59 33.3 72.39 33.3C73.19 33.3 73.84 32.65 73.84 31.85C73.84 28.65 71.25 26.06 68.05 26.06Z" />
					</g>
				</g>
			</g>
		</g>
	</g>
</svg>