<svg xmlns="http://www.w3.org/2000/svg" viewBox="0 0 107 107" width="107" height="107">
	<defs>
		<clipPath clipPathUnits="userSpaceOnUse" id="cp1">
			<path d="M-739 -1230L1181 -1230L1181 4329L-739 4329Z" />
		</clipPath>
	</defs>
	<style>
		tspan { white-space:pre }
		.shp0 { fill: #3a2511 } 
	</style>
	<g id="Antique" clip-path="url(#cp1)">
		<g id="page2">
			<g id="icons-text-page2">
				<g id="icons">
					<g id="Outline">
						<g id="Group 13">
							<path id="Path 6" fill-rule="evenodd" class="shp0" d="M103.69 34.98C104.16 34.99 104.6 35.2 104.92 35.54C105.24 35.89 105.4 36.34 105.38 36.81C105.33 38.33 104.78 39.79 103.82 40.98C105.65 43.24 105.9 46.39 104.45 48.92C102.99 51.44 100.13 52.8 97.26 52.34C96.97 53.07 96.57 53.75 96.06 54.35C98.48 59.33 99.21 64.97 98.15 70.41C98.02 71.05 97.55 71.57 96.93 71.76C96.76 71.81 96.59 71.83 96.41 71.83C95.95 71.83 95.5 71.65 95.17 71.31L86.7 62.84C83.66 59.78 81.45 56 80.27 51.85C79.91 51.7 79.56 51.52 79.23 51.31C77.39 54.08 75.02 56.46 72.26 58.33C71.72 58.69 71.02 58.72 70.45 58.41C69.87 58.11 69.52 57.51 69.52 56.86L69.52 45.66L67.28 43.43C64.36 40.48 62.2 36.86 60.99 32.89C57.87 31.99 54.96 30.5 52.4 28.5C50.5 28.39 48.61 28.06 46.78 27.52L38.29 37.38C33.85 42.53 31.41 49.12 31.44 55.93C31.44 56.4 31.48 56.88 31.51 57.35L33.86 60.17C35.8 56.89 38.14 53.87 40.82 51.17L48.43 43.56C49.12 42.87 50.24 42.87 50.92 43.56C51.61 44.25 51.61 45.37 50.92 46.06L43.31 53.66C40.55 56.46 38.18 59.62 36.27 63.06L36.55 63.41C37.23 64.22 37.97 64.99 38.7 65.76L40.94 63.53C41.63 62.84 42.75 62.84 43.44 63.53C44.13 64.22 44.13 65.33 43.44 66.02L41.2 68.26C41.97 68.99 42.74 69.73 43.55 70.41L45.29 71.86C48.67 69.96 51.79 67.62 54.55 64.9C55.23 64.21 56.35 64.21 57.04 64.9C57.73 65.59 57.73 66.7 57.04 67.39C54.37 70.03 51.4 72.34 48.17 74.26L49.6 75.45C50.1 75.48 50.6 75.52 51.13 75.52C57.91 75.52 64.45 73.09 69.59 68.67L78.98 60.59C79.72 60.02 80.78 60.13 81.39 60.84C82 61.56 81.95 62.62 81.27 63.27L71.9 71.34C66.42 76.05 59.49 78.76 52.27 79C52.46 80.04 52.23 81.11 51.64 81.98C51.04 82.85 50.12 83.45 49.08 83.64C48.87 83.68 48.7 83.85 48.65 84.06C48.35 85.61 47.18 86.83 45.65 87.21C45.32 87.29 44.98 87.34 44.64 87.34C43.86 87.33 43.1 87.1 42.45 86.66L28.84 105.54C28.51 106 27.98 106.27 27.41 106.27C27.23 106.27 27.05 106.24 26.88 106.19L20.9 104.29L16.18 104.29C15.62 104.29 15.08 104.02 14.75 103.56C14.42 103.1 14.33 102.51 14.51 101.97L16.33 96.49L9.69 95.54C8.73 95.4 8.06 94.51 8.19 93.55L9.25 86.15L1.76 82.93C1.17 82.68 0.76 82.12 0.7 81.48C0.64 80.84 0.93 80.22 1.46 79.85L18 68.61C18.81 68.06 19.91 68.27 20.45 69.08C21 69.88 20.79 70.98 19.99 71.53L6.11 80.96L10.97 83.04L22.65 74.72C23.44 74.15 24.54 74.33 25.11 75.12C25.68 75.92 25.5 77.02 24.7 77.59L12.84 86.06L11.95 92.3L17.95 93.16L28.55 80.2C29.16 79.45 30.27 79.33 31.03 79.95C31.78 80.57 31.9 81.68 31.28 82.43L20.25 95.91L18.63 100.77L20.22 100.77L24.69 94.06C25.23 93.25 26.33 93.03 27.14 93.57C27.95 94.11 28.17 95.21 27.63 96.02L23.94 101.56L26.73 102.44L39.99 84.03L35.42 78.54C33.3 76 30.96 73.65 28.42 71.53L21.09 65.43C19.89 64.43 19.37 62.82 19.75 61.3C20.14 59.78 21.36 58.62 22.9 58.31C23.12 58.27 23.28 58.1 23.33 57.88C23.52 56.85 24.11 55.93 24.98 55.33C25.85 54.73 26.93 54.51 27.96 54.71C28.2 47.48 30.91 40.56 35.62 35.07L43.28 26.18C39.01 24.23 35.37 21.14 32.75 17.25C32.39 16.71 32.36 16.01 32.66 15.44C32.97 14.86 33.57 14.5 34.22 14.5L43.7 14.5C44.67 14.5 45.46 15.29 45.46 16.27C45.46 17.24 44.67 18.03 43.7 18.03L37.86 18.03C40.64 21 44.18 23.15 48.11 24.22C47.68 23.68 47.26 23.12 46.87 22.54C46.51 22 46.48 21.3 46.78 20.73C47.09 20.16 47.69 19.8 48.34 19.8L60.32 19.8C62.87 19.8 65.41 20.18 67.85 20.93C67.79 20.56 67.75 20.18 67.75 19.8C67.77 17.08 69.34 14.6 71.81 13.45C71.27 11.94 71.26 10.29 71.78 8.78C70.77 8.24 69.55 8.22 68.53 8.74C67.99 9.01 67.36 8.99 66.85 8.69C66.33 8.4 66 7.86 65.97 7.26C65.88 5.39 64.34 3.91 62.46 3.91C60.59 3.91 59.05 5.39 58.96 7.26C58.93 7.86 58.6 8.39 58.08 8.69C57.57 8.99 56.94 9.01 56.4 8.74C54.9 7.96 53.06 8.37 52.03 9.71C50.99 11.04 51.06 12.93 52.19 14.19C52.83 14.92 52.76 16.03 52.03 16.68C51.3 17.33 50.19 17.26 49.54 16.53C47.56 14.31 47.2 11.09 48.62 8.48C50.05 5.88 52.96 4.45 55.89 4.91C56.93 2.19 59.55 0.4 62.46 0.4C65.37 0.4 67.98 2.19 69.02 4.91C70.65 4.67 72.3 5 73.72 5.84C75.64 4.11 78.36 3.57 80.8 4.45C81.95 1.97 84.44 0.39 87.16 0.39C89.89 0.39 92.37 1.97 93.53 4.45C96.09 3.52 98.96 4.15 100.9 6.08C101.59 6.76 101.59 7.88 100.9 8.57C100.21 9.26 99.09 9.26 98.4 8.57C97.08 7.27 94.99 7.21 93.59 8.43C93.09 8.88 92.38 8.99 91.75 8.74C91.13 8.48 90.71 7.89 90.67 7.22C90.57 5.36 89.03 3.91 87.17 3.91C85.31 3.91 83.78 5.36 83.67 7.22C83.63 7.89 83.21 8.48 82.59 8.74C81.97 8.99 81.25 8.88 80.75 8.43C79.36 7.23 77.28 7.3 75.98 8.6C74.68 9.9 74.6 11.98 75.81 13.37C76.25 13.88 76.37 14.59 76.11 15.21C75.85 15.83 75.26 16.26 74.59 16.3C72.74 16.4 71.28 17.94 71.28 19.8C71.28 21.66 72.74 23.19 74.59 23.29C75.26 23.34 75.85 23.76 76.11 24.38C76.37 25 76.25 25.72 75.81 26.22C74.6 27.61 74.68 29.69 75.98 30.99C77.28 32.29 79.36 32.36 80.75 31.16C81.25 30.72 81.97 30.6 82.59 30.86C83.21 31.11 83.63 31.7 83.67 32.37C83.77 34.23 85.31 35.68 87.17 35.68C89.03 35.68 90.57 34.23 90.67 32.37C90.71 31.7 91.13 31.11 91.75 30.86C92.38 30.6 93.09 30.72 93.59 31.16C94.98 32.36 97.07 32.29 98.36 30.99C99.66 29.69 99.74 27.61 98.54 26.22C98.09 25.72 97.97 25 98.23 24.38C98.49 23.76 99.08 23.34 99.75 23.29C101.6 23.19 103.06 21.66 103.06 19.8C103.06 17.94 101.6 16.4 99.75 16.3C99.28 16.27 98.84 16.05 98.54 15.7C98.23 15.35 98.07 14.89 98.1 14.42C98.18 13.45 99.01 12.72 99.98 12.77C103.19 12.97 105.85 15.32 106.45 18.48C107.06 21.63 105.44 24.8 102.53 26.16C103.46 28.72 102.82 31.6 100.89 33.53C98.96 35.46 96.09 36.09 93.53 35.16C93.35 35.52 93.15 35.86 92.92 36.19C95.3 37.29 96.52 39.98 95.77 42.51C95.01 45.03 92.52 46.61 89.92 46.23C87.32 45.85 85.39 43.61 85.4 40.98C85.4 40.31 85.53 39.66 85.78 39.05C83.6 38.6 81.76 37.16 80.81 35.15C80.45 35.27 80.09 35.37 79.72 35.43C79.21 36.95 79.79 38.62 81.13 39.49C81.63 39.82 81.93 40.37 81.93 40.97C81.93 41.57 81.63 42.12 81.13 42.45C79.56 43.46 79.07 45.53 80 47.15C80.07 47.26 80.15 47.38 80.24 47.48C80.25 47.5 80.26 47.52 80.28 47.54C81.31 48.87 83.14 49.27 84.63 48.51C85.16 48.24 85.79 48.26 86.31 48.56C86.83 48.86 87.16 49.39 87.19 49.99C87.27 51.86 88.82 53.34 90.69 53.34C92.57 53.34 94.11 51.86 94.2 49.99C94.23 49.39 94.56 48.86 95.08 48.56C95.59 48.26 96.22 48.24 96.75 48.51C98.42 49.36 100.45 48.76 101.39 47.15C102.32 45.53 101.83 43.46 100.26 42.45C99.76 42.12 99.46 41.57 99.46 40.97C99.46 40.38 99.76 39.82 100.26 39.49C101.21 38.87 101.81 37.82 101.86 36.67C101.91 35.7 102.72 34.95 103.69 34.98ZM92.46 40.98C92.46 40 91.67 39.21 90.69 39.21C89.72 39.21 88.93 40 88.93 40.98C88.93 41.95 89.72 42.74 90.69 42.74C91.67 42.74 92.46 41.95 92.46 40.98ZM41.3 73.12C38.59 70.87 36.09 68.37 33.84 65.66L27.74 58.34C27.61 58.17 27.39 58.1 27.19 58.16C26.98 58.21 26.82 58.38 26.79 58.58C26.47 60.2 25.21 61.46 23.59 61.78C23.39 61.82 23.22 61.97 23.17 62.17C23.12 62.38 23.19 62.59 23.35 62.73L30.68 68.83C33.38 71.08 35.88 73.58 38.13 76.29L44.24 83.61C44.37 83.77 44.58 83.84 44.79 83.79C44.99 83.74 45.15 83.57 45.19 83.37C45.51 81.76 46.77 80.49 48.38 80.18C48.58 80.14 48.75 79.98 48.8 79.78C48.85 79.57 48.78 79.36 48.62 79.23L41.3 73.12ZM51.96 23.33C56.12 27.83 61.98 30.39 68.11 30.39L71.64 30.39C71.3 29.12 71.33 27.78 71.7 26.51C68.27 24.43 64.34 23.33 60.32 23.33L51.96 23.33ZM69.78 40.94L69.83 40.99C70.22 38.54 70.97 36.15 72.05 33.92L68.12 33.92C67.08 33.92 66.05 33.85 65.02 33.73C66.11 36.42 67.73 38.87 69.78 40.94ZM73.05 53.22C74.5 51.86 75.76 50.31 76.8 48.61C75.52 46.14 75.82 43.14 77.57 40.98C76.26 39.35 75.74 37.24 76.14 35.19C75.91 35.11 75.69 35.02 75.48 34.92C73.89 38 73.06 41.41 73.05 44.88L73.05 53.22ZM95.09 66.25C95.2 62.86 94.54 59.49 93.14 56.4C89.61 57.75 85.65 56.03 84.22 52.54C85.3 55.47 87 58.13 89.19 60.35L95.09 66.25L95.09 66.25Z" />
							<path id="Path 7" class="shp0" d="M60.69 16.27C60.69 15.29 61.48 14.5 62.46 14.5C63.43 14.5 64.22 13.71 64.22 12.74C64.22 11.76 63.43 10.97 62.46 10.97C59.53 10.97 57.16 13.35 57.16 16.27C57.16 17.24 57.95 18.03 58.93 18.03C59.9 18.03 60.69 17.24 60.69 16.27Z" />
							<path id="Path 8" fill-rule="evenodd" class="shp0" d="M94.22 19.8C94.22 23.7 91.06 26.86 87.16 26.86C83.26 26.86 80.1 23.7 80.1 19.8C80.1 15.9 83.26 12.74 87.16 12.74C91.06 12.74 94.22 15.9 94.22 19.8ZM90.69 19.8C90.69 17.85 89.11 16.27 87.16 16.27C85.21 16.27 83.63 17.85 83.63 19.8C83.63 21.75 85.21 23.33 87.16 23.33C89.11 23.33 90.69 21.75 90.69 19.8Z" />
						</g>
					</g>
				</g>
			</g>
		</g>
	</g>
</svg>